<?xml version="1.0" encoding="UTF-8" standalone="no"?>
<svg
   xmlns:dc="http://purl.org/dc/elements/1.1/"
   xmlns:cc="http://creativecommons.org/ns#"
   xmlns:rdf="http://www.w3.org/1999/02/22-rdf-syntax-ns#"
   xmlns:svg="http://www.w3.org/2000/svg"
   xmlns="http://www.w3.org/2000/svg"
   id="svg17"
   version="1.1"
   height="48"
   width="207"
   text-rendering="geometricPrecision"
   shape-rendering="geometricPrecision"
   viewBox="0 0 207 48">
  <metadata
     id="metadata23">
    <rdf:RDF>
      <cc:Work
         rdf:about="">
        <dc:format>image/svg+xml</dc:format>
        <dc:type
           rdf:resource="http://purl.org/dc/dcmitype/StillImage" />
      </cc:Work>
    </rdf:RDF>
  </metadata>
  <defs
     id="defs21" />
  <rect
     id="rect2"
     fill="#25d366"
     transform="translate(.457627 0)"
     ry="12"
     rx="12"
     height="48"
     width="207" />
  <g
     id="g11"
     clip-path="url(#eLZ5tzTkGC66)">
    <g
       id="g6">
      <path
         style="clip-rule:evenodd;fill:#ffffff;fill-rule:evenodd"
         id="path4"
         d="m 27.7462,12.4474 c 2.9024,0.014 5.7034,1.1536 7.7986,3.1621 2.1456,2.057 3.3822,4.8152 3.4903,7.7856 0.1056,2.9007 -0.9071,5.7501 -2.8279,7.9262 -2.1067,2.3867 -5.0371,3.7574 -8.2021,3.8483 -0.108306,0.0031 -0.21665,0.0046 -0.325,0.0046 -1.7054,0 -3.3949,-0.3845 -4.9252,-1.1209 l -5.9481,1.323 c -0.02763,0.0054 -0.05615,-0.0029 -0.07663,-0.0222 -0.02048,-0.01931 -0.0304,-0.0473 -0.02667,-0.0752 l 1.0048,-6.0144 c -0.8575,-1.5668 -1.3361,-3.3321 -1.3877,-5.1278 -0.087,-3.0341 1.0127,-5.9203 3.0966,-8.1273 2.1606,-2.2882 5.1111,-3.562 8.2727,-3.562 z m -0.0633,1.9717 c -0.09095,4e-6 -0.18189,0.0013 -0.2728,0.0039 -5.1765,0.1485 -9.2671,4.4807 -9.1186,9.6572 0.0454,1.5806 0.4907,3.1322 1.2878,4.4869 l 0.173,0.2936 -0.7445,4.0812 4.0387,-0.9533 0.305,0.1587 c 1.3307,0.6924 2.8218,1.0553 4.3283,1.0553 0.0895,0 0.1792,-0.0013 0.2687,-0.0039 5.1766,-0.1484 9.2672,-4.4806 9.1187,-9.6571 -0.1459,-5.0851 -4.3294,-9.1225 -9.3843,-9.1225 z m -3.9285,3.9024 c 0.1899,0.0059 0.3802,0.0113 0.5462,0.0235 0.2029,0.0146 0.4275,0.031 0.6265,0.5128 0.2362,0.5721 0.747,2.0004 0.8139,2.1453 0.0669,0.1449 0.1093,0.313 0.0084,0.5007 -0.1009,0.1873 -0.1521,0.3049 -0.2995,0.467 -0.1477,0.1623 -0.3111,0.3628 -0.4431,0.4867 -0.1474,0.1379 -0.3006,0.2879 -0.143,0.5785 0.1575,0.2907 0.701,1.2424 1.5255,2.0249 1.0596,1.0056 1.9093,1.3374 2.2468,1.4948 0.1218,0.0569 0.223,0.0839 0.3114,0.0839 0.1214,0 0.2185,-0.0509 0.3112,-0.1448 0.1776,-0.18 0.712,-0.8036 0.937,-1.0905 0.1177,-0.1501 0.2243,-0.2033 0.34,-0.2033 0.0926,0 0.1911,0.0341 0.3061,0.08 0.2584,0.1032 1.639,0.8366 1.9198,0.9881 0.2808,0.1514 0.4686,0.2287 0.5363,0.3497 0.0676,0.1216 0.05,0.6927 -0.2081,1.3517 -0.2581,0.659 -1.4419,1.2661 -1.9662,1.2975 -0.1535,0.0093 -0.3045,0.0307 -0.501,0.0307 -0.4751,0 -1.2159,-0.1251 -2.8986,-0.8498 -2.8631,-1.2329 -4.6017,-4.2625 -4.7385,-4.4571 -0.1365,-0.1949 -1.1167,-1.5831 -1.0736,-2.9873 0.0431,-1.404 0.801,-2.0718 1.0712,-2.3493 0.259,-0.2661 0.5558,-0.334 0.7474,-0.334 z" />
    </g>
    <clipPath
       id="eLZ5tzTkGC66">
      <path
         style="fill:#ffffff"
         id="path8"
         transform="translate(16,11.5)"
         d="M 0,0 H 24 V 24 H 0 Z" />
    </clipPath>
  </g>
  <g
     id="text15"
     style="font-weight:700;font-size:16px;font-family:Helvetica;fill:#ffffff;stroke-width:0"
     transform="matrix(0.91255,0,0,1.05093,47.573271,30.404671)"
     aria-label="Hablar en WhatsApp">
    <path
       id="path25"
       style="font-weight:700;stroke-width:0"
       d="M 8.112,-5.296 V 0 h 2.4 V -11.664 H 8.096 v 4.368 H 3.488 v -4.368 h -2.4 V 0 h 2.4 v -5.296 z" />
    <path
       id="path27"
       style="font-weight:700;stroke-width:0"
       d="m 20.063962,-0.272 c -0.384,-0.368 -0.512,-0.624 -0.512,-1.056 v -4.8 c 0,-1.76 -1.2,-2.656 -3.536,-2.656 -2.336,0 -3.552,0.992 -3.696,2.992 h 2.16 c 0.112,-0.896 0.48,-1.184 1.584,-1.184 0.864,0 1.296,0.288 1.296,0.864 0,0.288 -0.144,0.528 -0.384,0.672 -0.304,0.16 -0.304,0.16 -1.408,0.336 l -0.896,0.16 c -1.712,0.288 -2.544,1.168 -2.544,2.72 0,1.552 1.04,2.592 2.624,2.592 0.96,0 1.824,-0.4 2.624,-1.232 0,0.448 0.048,0.608 0.256,0.864 h 2.432 z m -2.704,-3.2 c 0,1.296 -0.64,2.032 -1.776,2.032 -0.752,0 -1.216,-0.4 -1.216,-1.04 0,-0.672 0.352,-0.992 1.28,-1.184 l 0.768,-0.144 c 0.592,-0.112 0.688,-0.144 0.944,-0.272 z" />
    <path
       id="path29"
       style="font-weight:700;stroke-width:0"
       d="M 21.519958,-11.664 V 0 h 2.24 v -0.88 c 0.544,0.848 1.296,1.248 2.384,1.248 2.064,0 3.632,-1.968 3.632,-4.576 0,-1.168 -0.352,-2.352 -0.928,-3.184 -0.592,-0.848 -1.648,-1.392 -2.704,-1.392 -1.088,0 -1.84,0.4 -2.384,1.264 v -4.144 z m 4.128,4.752 c 1.104,0 1.888,1.12 1.888,2.72 0,1.584 -0.768,2.688 -1.888,2.688 -1.136,0 -1.888,-1.072 -1.888,-2.736 0,-1.584 0.768,-2.672 1.888,-2.672 z" />
    <path
       id="path31"
       style="font-weight:700;stroke-width:0"
       d="m 33.663929,-11.664 h -2.24 V 0 h 2.24 z" />
    <path
       id="path33"
       style="font-weight:700;stroke-width:0"
       d="m 43.183927,-0.272 c -0.384,-0.368 -0.512,-0.624 -0.512,-1.056 v -4.8 c 0,-1.76 -1.2,-2.656 -3.536,-2.656 -2.336,0 -3.552,0.992 -3.696,2.992 h 2.16 c 0.112,-0.896 0.48,-1.184 1.584,-1.184 0.864,0 1.296,0.288 1.296,0.864 0,0.288 -0.144,0.528 -0.384,0.672 -0.304,0.16 -0.304,0.16 -1.408,0.336 l -0.896,0.16 c -1.712,0.288 -2.544,1.168 -2.544,2.72 0,1.552 1.04,2.592 2.624,2.592 0.96,0 1.824,-0.4 2.624,-1.232 0,0.448 0.048,0.608 0.256,0.864 h 2.432 z m -2.704,-3.2 c 0,1.296 -0.64,2.032 -1.776,2.032 -0.752,0 -1.216,-0.4 -1.216,-1.04 0,-0.672 0.352,-0.992 1.28,-1.184 l 0.768,-0.144 c 0.592,-0.112 0.688,-0.144 0.944,-0.272 z" />
    <path
       id="path35"
       style="font-weight:700;stroke-width:0"
       d="M 44.703923,-8.64 V 0 h 2.24 v -4.592 c 0,-1.312 0.656,-1.968 1.968,-1.968 0.24,0 0.4,0.016 0.704,0.064 v -2.272 c -0.128,-0.016 -0.176,-0.016 -0.272,-0.016 -1.024,0 -1.904,0.672 -2.4,1.84 V -8.64 Z" />
    <path
       id="path37"
       style="font-weight:700;stroke-width:0"
       d="m 62.75192,-3.616 c 0.016,-0.192 0.016,-0.272 0.016,-0.384 0,-0.864 -0.128,-1.664 -0.336,-2.272 -0.576,-1.568 -1.968,-2.512 -3.712,-2.512 -2.48,0 -4,1.792 -4,4.688 0,2.768 1.504,4.464 3.952,4.464 1.936,0 3.504,-1.088 4,-2.8 h -2.208 c -0.272,0.688 -0.896,1.088 -1.712,1.088 -0.64,0 -1.152,-0.272 -1.472,-0.752 -0.208,-0.32 -0.288,-0.704 -0.32,-1.52 z m -5.76,-1.488 c 0.144,-1.328 0.704,-1.968 1.696,-1.968 1.024,0 1.632,0.688 1.744,1.968 z" />
    <path
       id="path39"
       style="font-weight:700;stroke-width:0"
       d="M 64.271916,-8.64 V 0 h 2.24 v -5.184 c 0,-1.024 0.704,-1.696 1.808,-1.696 0.96,0 1.44,0.528 1.44,1.552 V 0 h 2.24 v -5.792 c 0,-1.92 -1.04,-2.992 -2.896,-2.992 -1.168,0 -1.952,0.416 -2.592,1.392 V -8.64 Z" />
    <path
       id="path41"
       style="font-weight:700;stroke-width:0"
       d="m 89.167885,0 3.232,-11.664 h -2.544 l -1.744,8.752 -1.888,-8.752 h -2.368 l -1.808,8.736 -1.808,-8.736 h -2.544 L 80.991885,0 h 2.16 l 1.904,-9.104 1.952,9.104 z" />
    <path
       id="path43"
       style="font-weight:700;stroke-width:0"
       d="M 93.647836,-11.664 V 0 h 2.24 v -5.184 c 0,-0.992 0.72,-1.696 1.728,-1.696 0.496,0 0.864,0.176 1.12,0.528 0.208,0.288 0.256,0.528 0.256,1.072 V 0 h 2.240004 v -5.792 c 0,-1.072 -0.288,-1.84 -0.88,-2.336 -0.496004,-0.416 -1.216004,-0.656 -1.936004,-0.656 -1.104,0 -1.904,0.432 -2.528,1.392 v -4.272 z" />
    <path
       id="path45"
       style="font-weight:700;stroke-width:0"
       d="m 110.73581,-0.272 c -0.384,-0.368 -0.512,-0.624 -0.512,-1.056 v -4.8 c 0,-1.76 -1.2,-2.656 -3.536,-2.656 -2.336,0 -3.552,0.992 -3.696,2.992 h 2.16 c 0.112,-0.896 0.48,-1.184 1.584,-1.184 0.864,0 1.296,0.288 1.296,0.864 0,0.288 -0.144,0.528 -0.384,0.672 -0.304,0.16 -0.304,0.16 -1.408,0.336 l -0.896,0.16 c -1.712,0.288 -2.544,1.168 -2.544,2.72 0,1.552 1.04,2.592 2.624,2.592 0.96,0 1.824,-0.4 2.624,-1.232 0,0.448 0.048,0.608 0.256,0.864 h 2.432 z m -2.704,-3.2 c 0,1.296 -0.64,2.032 -1.776,2.032 -0.752,0 -1.216,-0.4 -1.216,-1.04 0,-0.672 0.352,-0.992 1.28,-1.184 l 0.768,-0.144 c 0.592,-0.112 0.688,-0.144 0.944,-0.272 z" />
    <path
       id="path47"
       style="font-weight:700;stroke-width:0"
       d="m 116.0158,-8.464 h -1.248 v -2.32 h -2.24 v 2.32 h -1.104 v 1.488 h 1.104 v 5.312 c 0,1.36 0.72,2.032 2.192,2.032 0.512,0 0.88,-0.048 1.296,-0.176 v -1.568 c -0.224,0.032 -0.336,0.048 -0.512,0.048 -0.592,0 -0.736,-0.176 -0.736,-0.944 v -4.704 h 1.248 z" />
    <path
       id="path49"
       style="font-weight:700;stroke-width:0"
       d="m 124.62376,-5.856 c -0.032,-1.824 -1.44,-2.928 -3.76,-2.928 -2.192,0 -3.552,1.104 -3.552,2.88 0,0.576 0.176,1.072 0.48,1.408 0.304,0.304 0.576,0.448 1.408,0.72 l 2.672,0.832 c 0.56,0.176 0.752,0.352 0.752,0.704 0,0.528 -0.624,0.848 -1.664,0.848 -0.592,0 -1.04,-0.096 -1.328,-0.304 -0.24,-0.176 -0.336,-0.352 -0.432,-0.816 h -2.192 c 0.064,1.904 1.456,2.88 4.08,2.88 1.2,0 2.112,-0.256 2.752,-0.768 0.64,-0.512 1.024,-1.312 1.024,-2.16 0,-1.12 -0.56,-1.84 -1.696,-2.176 l -2.832,-0.816 c -0.624,-0.192 -0.784,-0.32 -0.784,-0.672 0,-0.48 0.512,-0.8 1.296,-0.8 1.072,0 1.6,0.384 1.616,1.168 z" />
    <path
       id="path51"
       style="font-weight:700;stroke-width:0"
       d="m 133.45576,-2.352 0.768,2.352 h 2.464 l -4.032,-11.664 h -2.656 L 125.85576,0 h 2.448 l 0.784,-2.352 z m -0.656,-2 h -3.04 l 1.52,-4.56 z" />
    <path
       id="path53"
       style="font-weight:700;stroke-width:0"
       d="m 140.15973,-8.64 h -2.24 V 3.488 h 2.24 v -4.512 c 0.544,0.96 1.312,1.408 2.4,1.408 2.08,0 3.616,-1.952 3.616,-4.576 0,-1.216 -0.352,-2.432 -0.928,-3.232 -0.576,-0.816 -1.648,-1.36 -2.688,-1.36 -1.088,0 -1.856,0.464 -2.4,1.424 z m 1.888,1.728 c 1.136,0 1.888,1.088 1.888,2.752 0,1.584 -0.768,2.672 -1.888,2.672 -1.136,0 -1.888,-1.088 -1.888,-2.704 0,-1.632 0.752,-2.72 1.888,-2.72 z" />
    <path
       id="path55"
       style="font-weight:700;stroke-width:0"
       d="m 149.9357,-8.64 h -2.24 V 3.488 h 2.24 v -4.512 c 0.544,0.96 1.312,1.408 2.4,1.408 2.08,0 3.616,-1.952 3.616,-4.576 0,-1.216 -0.352,-2.432 -0.928,-3.232 -0.576,-0.816 -1.648,-1.36 -2.688,-1.36 -1.088,0 -1.856,0.464 -2.4,1.424 z m 1.888,1.728 c 1.136,0 1.888,1.088 1.888,2.752 0,1.584 -0.768,2.672 -1.888,2.672 -1.136,0 -1.888,-1.088 -1.888,-2.704 0,-1.632 0.752,-2.72 1.888,-2.72 z" />
  </g>
</svg>
